<svg width="15" height="15" viewBox="0 0 15 15" fill="none" xmlns="http://www.w3.org/2000/svg">
<path fill-rule="evenodd" clip-rule="evenodd" d="M12.0388 13.5668L13.5506 12.055L13.0182 10.1207L13.2502 9.56668L15.0007 8.57891V6.44106L13.2551 5.44916L13.027 4.89614L13.5662 2.96083L12.0533 1.45018L10.1188 1.98246L9.56609 1.7507L8.57822 0H6.44037L5.44847 1.74556L4.89558 1.97359L2.96058 1.4338L1.45009 2.94429L1.98246 4.87909L1.7507 5.43185L0 6.41971V8.55696L1.74399 9.55106L1.97226 10.1046L1.43323 12.0395L2.94429 13.5506L4.87909 13.0182L5.43191 13.25L6.41979 15H8.5571L9.55048 13.256L10.1039 13.0277L12.0388 13.5668ZM12.1728 8.60874L11.5784 10.0285L12.0252 11.6518L11.6377 12.0394L10.0177 11.5881L8.59739 12.1739L7.76443 13.6363H7.21593L6.38987 12.1729L4.97172 11.5783L3.3475 12.0252L2.96059 11.6383L3.41185 10.0184L2.82612 8.5982L1.36368 7.76458V7.21602L2.82768 6.38993L3.42231 4.97172L2.9754 3.3475L3.3615 2.96139L4.98141 3.41328L6.40224 2.8273L7.23393 1.36368H7.78187L8.60796 2.82768L10.0262 3.42231L11.6507 2.97531L12.0386 3.36263L11.5874 4.98222L12.1733 6.40293L13.637 7.23462V7.78256L12.1728 8.60874ZM7.50027 10.2278C5.99397 10.2278 4.77287 9.00669 4.77287 7.50039C4.77287 5.99408 5.99397 4.77299 7.50027 4.77299C9.00657 4.77299 10.2277 5.99408 10.2277 7.50039C10.2277 9.00669 9.00657 10.2278 7.50027 10.2278ZM8.86395 7.50036C8.86395 8.25351 8.2534 8.86406 7.50025 8.86406C6.7471 8.86406 6.13655 8.25351 6.13655 7.50036C6.13655 6.74721 6.7471 6.13667 7.50025 6.13667C8.2534 6.13667 8.86395 6.74721 8.86395 7.50036Z" fill="#005D73"/>
</svg>
