<svg width="15" height="13" viewBox="0 0 15 13" fill="none" xmlns="http://www.w3.org/2000/svg">
<path fill-rule="evenodd" clip-rule="evenodd" d="M12.2727 1.36364C13.0258 1.36364 13.6364 1.97416 13.6364 2.72727L13.6364 3.40916C14.3895 3.40916 15 4.01968 15 4.77279L14.9838 4.9207L13.6336 10.9963C13.5887 11.7088 12.9966 12.2728 12.2727 12.2728H1.36364C0.610521 12.2728 0 11.6623 0 10.9092V10.9091V1.36364C0 0.610521 0.610521 0 1.36364 0H5.45455C6.21818 0 6.70428 0.324171 7.19248 0.940127C7.20599 0.957175 7.23893 0.999614 7.27539 1.04661C7.32685 1.11291 7.38534 1.18828 7.40624 1.2142C7.42738 1.2404 7.4452 1.26207 7.45993 1.27999C7.51989 1.35292 7.52858 1.36349 7.50122 1.36364H12.2727ZM12.2727 2.72727V3.40916H2.72727C1.93186 3.40916 1.57514 3.83288 1.3835 4.60943L1.36364 4.69879V1.36364H5.45455C5.71653 1.36364 5.86842 1.46493 6.12382 1.78715C6.13184 1.79728 6.15485 1.82694 6.18352 1.8639C6.23833 1.93455 6.31382 2.03186 6.34488 2.07037C6.68774 2.49539 7.0067 2.72464 7.49635 2.72726L12.2727 2.72727ZM12.2727 10.909H1.38028L2.71105 4.92057C2.72723 4.85536 2.74139 4.80645 2.75204 4.77266H13.6197L12.289 10.7611L12.2727 10.909Z" fill="#005D73"/>
</svg>
